<svg xmlns="http://www.w3.org/2000/svg" viewBox="0 0 32 32"><defs><style>.cls-2{fill:#30acc2}.cls-3{fill:#a1d8df}</style></defs><g id="Cart"><path style="fill:#d1e6e9" d="M7 5h24l-2 14H9L7 5z"/><circle class="cls-2" cx="11" cy="28" r="3"/><circle class="cls-2" cx="25" cy="28" r="3"/><path class="cls-3" d="M21.38 16.78 19 14.88l-2.38 1.9-1.24-1.56 2-1.65C15 11 15.83 7 19 7s4 4 1.57 6.57l2.05 1.65zM19 9c-1.46 0-1.2 2.18 0 3.31C20.19 11.2 20.47 9 19 9zM12 28a1 1 0 0 1-2 0 1 1 0 0 1 2 0zM26 28a1 1 0 0 1-2 0 1 1 0 0 1 2 0z"/><path style="fill:#68c7d3" d="M28 23H8.14l-3-20H1V1h5.86l3 20H28v2z"/></g></svg>